<svg xmlns="http://www.w3.org/2000/svg" viewBox="0 0 83.47 83.47"><defs><style>.cls-1{fill:#fff;}</style></defs><g id="Layer_2" data-name="Layer 2"><g id="Calque_1" data-name="Calque 1"><circle class="cls-1" cx="41.74" cy="41.73" r="14.15"/><path class="cls-1" d="M59.32,24.16a24.89,24.89,0,0,1,5.36,27.15,3.18,3.18,0,0,0,.67,3.49l7.87,7.87a3.18,3.18,0,0,0,5-.7A41.75,41.75,0,0,0,21.5,5.21a3.19,3.19,0,0,0-.7,5l7.88,7.87a3.18,3.18,0,0,0,3.48.68A24.89,24.89,0,0,1,59.32,24.16Z"/><path class="cls-1" d="M24.16,59.31a24.9,24.9,0,0,1-5-28,3.17,3.17,0,0,0-.62-3.6l-7.8-7.81a3.19,3.19,0,0,0-5,.64A41.77,41.77,0,0,0,62.94,77.72a3.2,3.2,0,0,0,.64-5l-7.8-7.8a3.19,3.19,0,0,0-3.6-.62A24.91,24.91,0,0,1,24.16,59.31Z"/></g></g></svg>