<svg id="" xmlns="http://www.w3.org/2000/svg" xmlns:xlink="http://www.w3.org/1999/xlink" width="100%" height="100%" viewBox="0 0 1920 1041">
    <g id="Component_22_1" data-name="Component 22 – 1">
      <rect id="Rectangle_13" class="MainColor" data-name="Rectangle 13" width="1135" height="648" transform="translate(100)" fill="#26303a" opacity="0.85"/>
      <rect id="Rectangle_7"  data-name="Rectangle 7" class="MainColor" width="1920" height="59" transform="translate(0 687)" fill="#26303a" opacity="0.85"/>
      <rect id="Rectangle_10" data-name="Rectangle 10" class="ScdColor" width="636" height="295" transform="translate(1043 746)" fill="#8a8a8a" opacity="0.6"/>
      <rect id="Rectangle_12"  data-name="Rectangle 12" width="495" class="MainColor" height="253" transform="translate(1325 396)" fill="#26303a" opacity="0.85"/>
      <rect id="Rectangle_14" data-name="Rectangle 14" width="431" height="275" transform="translate(1358 34)" fill="#727272" opacity="0"/>
      <rect id="Rectangle_19" data-name="Rectangle 19" width="495" height="351" transform="translate(1325)" class="MainColor" fill="#26303a" opacity="0.85"/>
      <text id="SEASON_5" data-name="SEASON 5" transform="translate(1435 286)" fill="#fff" font-size="53" font-family="Montserrat-SemiBold, Montserrat" font-weight="600"><tspan x="0" y="0">SEASON 5</tspan></text>
  
      <image id="VRML" width="248" height="248" transform="translate(1449 14)" xlink:href="/assets/vrml2.png"/>
      
      <rect id="Rectangle_17" data-name="Rectangle 17" width="83" height="295" transform="translate(960 746)" fill="#fa0" opacity="0.75"/>
      <rect id="Rectangle_18" data-name="Rectangle 18" width="83" height="295" transform="translate(877 746)" fill="#00a8ff" opacity="0.75"/>
      <rect id="Rectangle_45" data-name="Rectangle 45" width="636" height="295" class="ScdColor" transform="translate(241 746)" fill="#8a8a8a" opacity="0.6"/>
      <rect id="Rectangle_47" data-name="Rectangle 47" width="241" height="295" transform="translate(0 746)" class="MainColor" fill="#26303a" opacity="0.6"/>
      <rect id="Rectangle_48" data-name="Rectangle 48" width="241" height="295" transform="translate(1679 746)" class="MainColor" fill="#26303a" opacity="0.6"/>
    </g>
    <image id="teamA" width="164" height="165" transform="translate(39 812)" xlink:href=""/>
    <text id="WEEK_" data-name="WEEK 4" transform="translate(1461 540)" fill="#fff" font-size="54" font-family="Montserrat-SemiBold, Montserrat" font-weight="600"><tspan x="0" y="0"></tspan></text>
    <image id="teamB" width="164" height="164" transform="translate(1720 812)" xlink:href=""/>
    <image id="rankA" width="44" height="42" transform="translate(180 790)" xlink:href=""/>
    <image id="rankB" width="44" height="42" transform="translate(1856 790)" xlink:href=""/>
    <text id="R1" transform="translate(949 815)" fill="#fff" font-size="20" font-family="Montserrat-SemiBold, Montserrat" font-weight="600"><tspan x="0" y="0">R1</tspan></text>
    <text id="R2" transform="translate(947 894)" fill="#fff" font-size="20" font-family="Montserrat-SemiBold, Montserrat" font-weight="600"><tspan x="0" y="0">R2</tspan></text>
    <text id="R3" transform="translate(947 975)" fill="#fff" font-size="20" font-family="Montserrat-SemiBold, Montserrat" font-weight="600"><tspan x="0" y="0">R3</tspan></text>
    <rect id="KEEPME" width="636" height="295" transform="translate(1043 746)" fill="#8a8a8a" opacity="0.6"/>
    <rect id="KEEPME1" width="636" height="295" transform="translate(241 746)" fill="#8a8a8a" opacity="0.6"/>
  </svg>